<svg xmlns="http://www.w3.org/2000/svg" id="Layer_1" data-name="Layer 1" viewBox="0 0 36 24">
    <defs>
        <style>
            .cls-2 {
                fill: #3c4650
            }
        </style>
    </defs>
    <path
        d="M31.9,1a3.44,3.44,0,0,1,3.24,3.55V19.46A3.44,3.44,0,0,1,31.9,23H4.1A3.44,3.44,0,0,1,.86,19.46V4.54A3.44,3.44,0,0,1,4.1,1H31.9"
        fill="#fff" />
    <path class="cls-2"
        d="M31.58,1.2a3.37,3.37,0,0,1,3.17,3.48V19.32a3.37,3.37,0,0,1-3.17,3.48H4.31a3.38,3.38,0,0,1-3.18-3.48V4.68A3.38,3.38,0,0,1,4.31,1.2H31.58m0-1.2H4.31A4.55,4.55,0,0,0,0,4.68V19.32A4.55,4.55,0,0,0,4.31,24H31.69A4.62,4.62,0,0,0,36,19.32V4.68A4.72,4.72,0,0,0,31.58,0Z" />
    <path class="cls-2" d="M1.6,1.6 L34.4,22.4" stroke="#3c4650" stroke-width="2" />
    <path class="cls-2" d="M26.82,4.5a1.94,1.94,0,0,0-2,2.06,2,2,0,1,0,3.95,0A2,2,0,0,0,26.82,4.5Z" />
    <path class="cls-2"
        d="M30 9.82c-.12-1-1.39-1.09-1.39-1.09a2 2 0 01-3.48 0s-1.28.12-1.4 1.09 0 7.38 0 7.38c.12.24.47.36.7.49a8.18 8.18 0 01.23 1.69 12.24 12.24 0 002.21.12c.81 0 1.62-.12 2.2-.12a8.18 8.18 0 00.23-1.69 1 1 0 00.7-.49C30 17.32 30.06 10.67 30 9.82zM9.18 4.5a1.93 1.93 0 00-2 2.06 2.07 2.07 0 002 2.05 2.07 2.07 0 002-2A2 2 0 009.18 4.5zM12.32 9.82c-.12-1-1.4-1.09-1.4-1.09a2 2 0 01-1.74 1 1.83 1.83 0 01-1.74-1s-1.27.12-1.39 1.09 0 7.38 0 7.38c.12.24.47.36.7.49A8.92 8.92 0 017 19.38a12.18 12.18 0 002.2.12c.82 0 1.63-.12 2.21-.12a8.92 8.92 0 00.23-1.69 1 1 0 00.7-.49zM18 4.5a1.93 1.93 0 00-2 2.06 2.07 2.07 0 002 2.05 2.07 2.07 0 002-2A2 2 0 0018 4.5zM21.13 9.82c-.11-1-1.39-1.09-1.39-1.09A1.83 1.83 0 0118 9.7a1.83 1.83 0 01-1.74-1S15 8.85 14.87 9.82s0 7.38 0 7.38c.11.24.46.36.69.49a8.2 8.2 0 01.24 1.69 12.18 12.18 0 002.2.12c.81 0 1.62-.12 2.2-.12a8.2 8.2 0 00.24-1.69 1 1 0 00.69-.49C21.13 17.32 21.25 10.67 21.13 9.82z" />
</svg>