<svg xmlns="http://www.w3.org/2000/svg" viewBox="0 0 38 32">
    <path
        d="M4.5,31C2.6,31,1,29.4,1,27.5c0-0.7,0.2-1.4,0.6-2L16,2.6c0.7-1,1.8-1.6,3-1.6c0.7,0,1.3,0.2,1.9,0.5 c0.4,0.3,0.8,0.7,1.1,1.1l14.6,22.9c1,1.7,0.5,3.8-1.1,4.9c0,0-0.9,0.6-2,0.6H4.5L4.5,31z"
        fill="#e76b18" />
    <path fill="fff"
        d="M19,2c0.5,0,0.9,0.1,1.3,0.4c0.3,0.2,0.5,0.5,0.7,0.8L35.6,26c0.7,1.2,0.4,2.7-0.8,3.5c0,0-0.6,0.4-1.4,0.4 H4.5c-1.4,0-2.5-1.1-2.5-2.5c0-0.5,0.1-1,0.4-1.5L16.9,3.2C17.3,2.4,18.1,2,19,2 M19,0L19,0c-1.5,0-2.9,0.7-3.8,2l0,0l0,0L0.7,24.9 C0.2,25.7,0,26.6,0,27.5C0,30,2,32,4.5,32h28.9c0.9,0,1.7-0.3,2.5-0.8l0,0c2.1-1.4,2.7-4.1,1.5-6.2l0,0l0,0L22.8,2.1 c-0.3-0.5-0.8-1-1.3-1.3l0,0l0,0C20.7,0.3,19.9,0,19,0z" />
    <path fill="#fff"
        d="M17.8 22.2h2.4c.6 0 1.1.5 1.1 1.1v2.5c0 .6-.5 1.1-1.1 1.1h-2.4c-.6 0-1.1-.5-1.1-1.1v-2.5C16.7 22.7 17.2 22.2 17.8 22.2zM17.8 20.3l-1.1-5.6v-3.1c0 0 0-.8 2.3-.8s2.3.8 2.3.8v3l-1.1 5.6L17.8 20.3 17.8 20.3z" />
</svg>