<svg xmlns="http://www.w3.org/2000/svg" viewBox="0 0 32 32">
    <defs>
        <style>
            .cls-3 {
                fill-rule: evenodd;
                fill: #3c4650
            }
        </style>
        <mask id="mask" x="15.29" y="1.91" width="5.34" height="5.44" maskUnits="userSpaceOnUse">
            <g id="b">
                <path id="a" d="M15.29,1.91h5.34V7.35H15.29Z" fill-rule="evenodd" fill="#fff" />
            </g>
        </mask>
    </defs>
    <g mask="url(#mask)">
        <path class="cls-3" d="M18,1.91a2.69,2.69,0,0,1,2.67,2.72,2.67,2.67,0,1,1-5.34,0A2.69,2.69,0,0,1,18,1.91" />
    </g>
    <path class="cls-3"
        d="M20.06,9.77l.79,1.53a1.76,1.76,0,0,0,.42.53L25,15.06a.91.91,0,0,1,.1,1.29l-.15.19a.89.89,0,0,1-1.25.12l-4-3.25a1.91,1.91,0,0,1-.48-.58l-.06-.12a.6.6,0,0,1-.05-.35l.57-2.55a.2.2,0,0,1,.23-.15.16.16,0,0,1,.14.11" />
    <path class="cls-3"
        d="M21.58,23.35a1.56,1.56,0,0,0-.56-1l-4.11-3.51,2.28-9.41a1.07,1.07,0,0,0-.77-1.31L16,7.52a1.22,1.22,0,0,0-.57,0h0L10.18,9.36a1.28,1.28,0,0,0-.78.73L6.76,15.41a.71.71,0,0,0,.32.95h0a0,0,0,0,1,0,0l.61.29a.7.7,0,0,0,.93-.33l2.46-5.07,3.11-1.06-1.87,7.22a1.89,1.89,0,0,0,.7,1.63l5.74,4.85a1,1,0,0,1,.35.63l.67,4.93a.71.71,0,0,0,.79.61l1.21-.16a.71.71,0,0,0,.61-.79h0s-.84-5.78-.84-5.78" />
    <path class="cls-3"
        d="M13.26,18.92l1.9,1.62a.43.43,0,0,1,.15.44l-.7,2.79A2.81,2.81,0,0,1,14,24.91L9.59,29.8a.74.74,0,0,1-1,.06l0,0-1-.9a.76.76,0,0,1-.06-1.08l4.37-4.76a.79.79,0,0,0,.2-.37L13,19a.21.21,0,0,1,.24-.16s0,0,.06.06" />
</svg>