<svg xmlns="http://www.w3.org/2000/svg"  viewBox="0 0 20 20">
    <g fill="none" fill-rule="evenodd">
        <rect width="20" height="20" rx="2" />
        <path
            d="M3.99 9.423a4.9 4.9 0 0 0-1.262 3.288c0 2.72 2.238 4.942 4.977 4.942a4.99 4.99 0 0 0 3.519-1.447c.45-.447.813-.98 1.066-1.571a.8.8 0 0 0-.09-.81.812.812 0 0 0-1.401.183c-.17.398-.416.758-.72 1.06a3.349 3.349 0 0 1-2.374.978 3.336 3.336 0 0 1-3.359-3.335 3.288 3.288 0 0 1 .852-2.218.8.8 0 0 0 .147-.862.81.81 0 0 0-1.355-.208z"
            fill="#3C4650" />
        <path
            d="M4.647 4.401c0 .085.007.169.02.252L5.67 10.81c.064.388.4.673.795.675l5.269.033 1.82 4.196a.812.812 0 0 0 1.015.439l2.139-.755a.803.803 0 0 0 .491-1.028.811.811 0 0 0-1.035-.487l-1.423.503-1.729-3.987a.81.81 0 0 0-.739-.486L7.161 9.88l-.08-.483h3.617A.811.811 0 0 0 11.41 9a.8.8 0 0 0 0-.81.811.811 0 0 0-.71-.4H6.82l-.286-1.747a1.66 1.66 0 0 0 1.447-1.64 1.66 1.66 0 0 0-1.666-1.656c-.92 0-1.667.741-1.667 1.655z"
            fill="#3C4650" />
    </g>
</svg>